<svg width="24" height="21" viewBox="0 0 24 21" fill="none" xmlns="http://www.w3.org/2000/svg">
<path d="M12.2227 0.796875C14.5273 0.796875 16.2344 1.4375 17.3437 2.71875C18.2656 3.78906 18.7266 5.09375 18.7266 6.63281C18.7266 8.34375 18.1641 9.74219 17.0391 10.8281C15.9219 11.9141 14.375 12.457 12.3984 12.457C10.7969 12.457 9.53515 12.2148 8.61328 11.7305C7.69922 11.2539 6.98828 10.5547 6.48047 9.63281C5.97265 8.71875 5.71875 7.71875 5.71875 6.63281C5.71875 4.89063 6.27734 3.48047 7.39453 2.40234C8.51172 1.33203 10.1211 0.796875 12.2227 0.796875ZM12.2227 2.96484C10.6289 2.96484 9.43359 3.3125 8.63672 4.00781C7.84765 4.70313 7.45312 5.57813 7.45312 6.63281C7.45312 7.67969 7.85156 8.55078 8.64844 9.24609C9.44531 9.94141 10.6602 10.2891 12.293 10.2891C13.832 10.2891 14.9961 9.9375 15.7852 9.23438C16.582 8.53906 16.9805 7.67188 16.9805 6.63281C16.9805 5.57813 16.5859 4.70313 15.7969 4.00781C15.0078 3.3125 13.8164 2.96484 12.2227 2.96484ZM13.1719 14.0273C13.1875 14.6289 13.3477 15.1172 13.6523 15.4922C13.9648 15.875 14.3906 16.1289 14.9297 16.2539C15.4687 16.3789 16.3906 16.4453 17.6953 16.4531C19 16.4609 19.8594 16.4844 20.2734 16.5234C20.9297 16.5938 21.457 16.7227 21.8555 16.9102C22.2539 17.1055 22.5703 17.3438 22.8047 17.625C23.0469 17.9063 23.2305 18.2656 23.3555 18.7031C23.4336 19 23.4727 19.4844 23.4727 20.1563V20.8125H21.6328V20.4492C21.6328 19.6367 21.4844 19.0977 21.1875 18.832C20.8984 18.5664 20.2461 18.4336 19.2305 18.4336C17.1836 18.4336 15.8906 18.3906 15.3516 18.3047C14.5156 18.1641 13.8711 17.9219 13.418 17.5781C12.9648 17.2422 12.5625 16.7109 12.2109 15.9844C11.8516 16.8438 11.3008 17.4648 10.5586 17.8477C9.82422 18.2383 8.61719 18.4336 6.9375 18.4336C5.41406 18.4336 4.50781 18.4492 4.21875 18.4805C3.6875 18.543 3.3164 18.6992 3.10547 18.9492C2.89453 19.207 2.78906 19.707 2.78906 20.4492V20.8125H0.949216V20.1563C0.949216 19.3906 1.01172 18.8359 1.13672 18.4922C1.3164 17.9922 1.60937 17.5781 2.01562 17.25C2.41406 16.9219 2.92187 16.707 3.53906 16.6055C4.15625 16.5117 5.16797 16.4609 6.57422 16.4531C7.98047 16.4453 8.95312 16.3789 9.49219 16.2539C10.0312 16.1289 10.457 15.875 10.7695 15.4922C11.082 15.1172 11.2461 14.6289 11.2617 14.0273L13.1719 14.0273Z" fill="black"/>
</svg>
